<?xml version="1.0" encoding="utf-8"?>
<!-- Generator: Adobe Illustrator 27.4.0, SVG Export Plug-In . SVG Version: 6.00 Build 0)  -->
<svg version="1.1" id="Layer_1" xmlns="http://www.w3.org/2000/svg" xmlns:xlink="http://www.w3.org/1999/xlink" x="0px" y="0px"
	 viewBox="0 0 33 33" style="enable-background:new 0 0 33 33;" xml:space="preserve">
<style type="text/css">
	.st0{fill:#E9FCFD;}
	.st1{fill:#97DADE;}
	.st2{fill:none;stroke:#1152A3;stroke-width:1.25;}
	.st3{fill:#1152A3;}
	.st4{fill:none;stroke:#1152A3;stroke-width:2;stroke-linecap:round;}
	.st5{fill:none;stroke:#1152A3;}
	.st6{fill:none;stroke:#1152A3;stroke-width:1.25;stroke-linecap:round;stroke-linejoin:round;}
</style>
<path class="st0" d="M5,0.5h20c2.5,0,4.5,2,4.5,4.5v20c0,2.5-2,4.5-4.5,4.5H5c-2.5,0-4.5-2-4.5-4.5V5C0.5,2.5,2.5,0.5,5,0.5z"/>
<path class="st1" d="M25,10v13c0,0.6-0.4,1-1,1h-9c-1.1,0-2-0.4-2-1.5v-3.7c0.7-0.1,1.4-0.4,2-0.6l0,0c2.2-1,4.1-2.8,5.1-5
	C20.7,11.9,21,10.5,21,9V7l1,0C23.7,7,25,8.3,25,10z"/>
<path class="st2" d="M15,18.2c-0.6,0.3-1.3,0.5-2,0.6v3.7c0,1.1,0.9,1.5,2,1.5h9c0.6,0,1-0.4,1-1V10c0-1.7-1.3-3-3-3l0,0l-1,0v2
	 M15,18.2L15,18.2 M15,18.2c3.5-1.5,6-5.1,6-9.2 M15,18.2C15,18.2,15,18.2,15,18.2 M21,9c0,4.1-2.5,7.6-6,9.2"/>
<path class="st3" d="M11.6,19c0-0.3-0.3-0.6-0.6-0.6s-0.6,0.3-0.6,0.6H11.6z M8.8,17.9c-0.3-0.1-0.7,0-0.8,0.3
	c-0.1,0.3,0,0.7,0.3,0.8L8.8,17.9z M5,20.4h0.6H5z M20.7,6l-0.5,0.3L20.7,6z M15,18.2l0.3,0.6L15,18.2z M8.1,24.9l-0.6,0.2L8.1,24.9
	z M7.4,25.9l-0.1,0.6L7.4,25.9z M11,19v-0.6h-0.6V19H11z M14,5.6h5V4.4h-5V5.6z M5.6,20.4V14H4.4v6.4H5.6z M20.4,7v2h1.2V7H20.4z
	 M11,18.4c-0.6,0-1.2-0.1-1.6-0.2C9.2,18.1,9,18,8.9,18c-0.1,0-0.1,0-0.1,0c0,0,0,0,0,0c0,0,0,0,0,0c0,0,0,0,0,0c0,0,0,0,0,0
	c0,0,0,0,0,0c0,0,0,0,0,0c0,0,0,0-0.3,0.6s-0.3,0.6-0.3,0.6c0,0,0,0,0,0c0,0,0,0,0,0c0,0,0,0,0,0c0,0,0,0,0,0c0,0,0,0,0,0
	c0,0,0,0,0,0c0,0,0.1,0,0.2,0.1c0.1,0.1,0.3,0.1,0.6,0.2c0.5,0.1,1.2,0.3,2,0.3V18.4z M8.2,21.7c-0.6,0.5-0.9,1.1-0.9,1.7
	c-0.1,0.6,0.1,1.2,0.2,1.7l1.2-0.4c-0.1-0.4-0.2-0.8-0.2-1.2c0-0.4,0.2-0.6,0.4-0.9L8.2,21.7z M4.4,20.4c0,2.1,0.3,3.6,0.8,4.5
	c0.5,1,1.3,1.4,2.1,1.6l0.3-1.2c-0.4-0.1-0.9-0.3-1.2-1c-0.4-0.7-0.7-1.9-0.7-3.9H4.4z M14,4.4c-5.3,0-9.6,4.3-9.6,9.6h1.2
	c0-4.6,3.7-8.4,8.4-8.4V4.4z M19,5.6c0.5,0,1,0.3,1.2,0.7l1.1-0.6C20.8,4.9,20,4.4,19,4.4V5.6z M20.2,6.3c0.1,0.2,0.2,0.4,0.2,0.7
	h1.2c0-0.5-0.1-0.9-0.4-1.3L20.2,6.3z M20.4,9c0,3.8-2.3,7.1-5.6,8.6l0.5,1.1c3.8-1.6,6.4-5.4,6.4-9.7H20.4z M14.7,17.6
	c-1.1,0.5-2.4,0.8-3.7,0.8v1.2c1.5,0,2.9-0.3,4.3-0.9L14.7,17.6z M7.5,25.1C7.5,25.1,7.5,25.2,7.5,25.1c0,0.1,0,0.2,0,0.2
	c0,0,0,0,0,0c0,0,0,0,0,0c0,0,0,0,0,0c0,0,0,0,0,0c0,0,0,0,0,0l-0.3,1.2c0.6,0.1,1-0.2,1.3-0.5c0.2-0.4,0.3-0.8,0.2-1.3L7.5,25.1z
	 M10.4,19c0,0.5-0.2,0.9-0.6,1.4c-0.4,0.5-1,0.9-1.6,1.3l0.8,1c0.5-0.4,1.2-0.9,1.7-1.4c0.5-0.6,1-1.3,1-2.2H10.4z"/>
<path class="st4" d="M9.5,14.5h0.1"/>
<path class="st0" d="M17.7,18.3v11.3c0,1.3,3.2,2.4,7.3,2.4s7.3-1.1,7.3-2.4V18.3"/>
<path class="st5" d="M5,0.5h20c2.5,0,4.5,2,4.5,4.5v20c0,2.5-2,4.5-4.5,4.5H5c-2.5,0-4.5-2-4.5-4.5V5C0.5,2.5,2.5,0.5,5,0.5z"/>
<path class="st0" d="M17.7,18.3c0-1.3,3.3-2.4,7.3-2.4s7.3,1.1,7.3,2.4v11.3c0,1.3-3.2,2.4-7.3,2.4s-7.3-1.1-7.3-2.4V18.3z"/>
<path class="st6" d="M32.3,18.3c0,1.3-3.3,2.4-7.3,2.4s-7.3-1.1-7.3-2.4 M32.3,18.3c0-1.3-3.3-2.4-7.3-2.4s-7.3,1.1-7.3,2.4
	 M32.3,18.3v11.3c0,1.3-3.2,2.4-7.3,2.4s-7.3-1.1-7.3-2.4V18.3 M32.3,24c0,1.3-3.2,2.4-7.3,2.4s-7.3-1.1-7.3-2.4"/>
</svg>
