<?xml version="1.0" encoding="utf-8"?>
<!-- Generator: Adobe Illustrator 27.4.0, SVG Export Plug-In . SVG Version: 6.00 Build 0)  -->
<svg version="1.1" id="Layer_1" xmlns="http://www.w3.org/2000/svg" xmlns:xlink="http://www.w3.org/1999/xlink" x="0px" y="0px"
	 viewBox="0 0 33 33" style="enable-background:new 0 0 33 33;" xml:space="preserve">
<style type="text/css">
	.st0{fill:#FFF5E1;}
	.st1{fill:#FED5A4;stroke:#E46000;stroke-width:1.25;}
	.st2{fill:none;stroke:#E46000;}
	.st3{fill:none;stroke:#E46000;stroke-width:1.25;stroke-linecap:round;stroke-linejoin:round;}
</style>
<path class="st0" d="M5,0.5h20c2.5,0,4.5,2,4.5,4.5v20c0,2.5-2,4.5-4.5,4.5H5c-2.5,0-4.5-2-4.5-4.5V5C0.5,2.5,2.5,0.5,5,0.5z"/>
<path class="st1" d="M24,18c0-5-4-11-9-11s-9,6-9,11s4,5,9,5S24,23,24,18z"/>
<path class="st0" d="M17.7,18.3v11.3c0,1.3,3.2,2.4,7.3,2.4s7.3-1.1,7.3-2.4V18.3"/>
<path class="st2" d="M5,0.5h20c2.5,0,4.5,2,4.5,4.5v20c0,2.5-2,4.5-4.5,4.5H5c-2.5,0-4.5-2-4.5-4.5V5C0.5,2.5,2.5,0.5,5,0.5z"/>
<path class="st0" d="M17.7,18.3c0-1.3,3.3-2.4,7.3-2.4s7.3,1.1,7.3,2.4v11.3c0,1.3-3.2,2.4-7.3,2.4s-7.3-1.1-7.3-2.4V18.3z"/>
<path class="st3" d="M32.3,18.3c0,1.3-3.3,2.4-7.3,2.4s-7.3-1.1-7.3-2.4 M32.3,18.3c0-1.3-3.3-2.4-7.3-2.4s-7.3,1.1-7.3,2.4
	 M32.3,18.3v11.3c0,1.3-3.2,2.4-7.3,2.4s-7.3-1.1-7.3-2.4V18.3 M32.3,24c0,1.3-3.2,2.4-7.3,2.4s-7.3-1.1-7.3-2.4"/>
</svg>
